PathFileType	4	(X/Y/Z)	C:\Users\IEUser\Desktop\02761_POST\experimental_data\task.trc
DataRate	CameraRate	NumFrames	NumMarkers	Units	OrigDataRate	OrigDataStartFrame	OrigNumFrames
100.000000	100.000000	4	51	mm	100.000000	225	361
Frame#	Time	C7			CLAV			LANK			LASI			LBHD			LELB			LFHD			LFIN			LFMH			LHEE			LKNE			LMED			LMET			LMIF			LPSI			LSHO			LTAD			LTHAP			LTHI			LTIAD			LTIB			LTOE			LTTU			LWRA			LWRB			RANK			RASI			RBAK			RBHD			RELB			RFHD			RFIN			RFMH			RHEE			RKNE			RMED			RMET			RMIF			RPSI			RSHO			RTAD			RTHAP			RTHI			RTIAD			RTIB			RTOE			RTTU			RWRA			RWRB			STRN			T10			
		X1	Y1	Z1	X2	Y2	Z2	X3	Y3	Z3	X4	Y4	Z4	X5	Y5	Z5	X6	Y6	Z6	X7	Y7	Z7	X8	Y8	Z8	X9	Y9	Z9	X10	Y10	Z10	X11	Y11	Z11	X12	Y12	Z12	X13	Y13	Z13	X14	Y14	Z14	X15	Y15	Z15	X16	Y16	Z16	X17	Y17	Z17	X18	Y18	Z18	X19	Y19	Z19	X20	Y20	Z20	X21	Y21	Z21	X22	Y22	Z22	X23	Y23	Z23	X24	Y24	Z24	X25	Y25	Z25	X26	Y26	Z26	X27	Y27	Z27	X28	Y28	Z28	X29	Y29	Z29	X30	Y30	Z30	X31	Y31	Z31	X32	Y32	Z32	X33	Y33	Z33	X34	Y34	Z34	X35	Y35	Z35	X36	Y36	Z36	X37	Y37	Z37	X38	Y38	Z38	X39	Y39	Z39	X40	Y40	Z40	X41	Y41	Z41	X42	Y42	Z42	X43	Y43	Z43	X44	Y44	Z44	X45	Y45	Z45	X46	Y46	Z46	X47	Y47	Z47	X48	Y48	Z48	X49	Y49	Z49	X50	Y50	Z50	X51	Y51	Z51	

226	2.25	172.1868743896485	1300.056518554688	-329.0989990234376	261.8893737792969	1205.844482421875	-304.6011962890626	303.5416259765626	57.10824584960939	-378.7779541015626	239.8888397216797	847.6324462890627	-401.6025390625001	243.7378692626954	1437.460815429688	-370.5163574218751	135.1911315917969	983.2642211914065	-568.4779663085939	365.9851074218751	1407.947875976563	-346.3713378906251	156.7635650634766	705.9729614257814	-668.3129272460939	427.5204162597657	33.66729736328126	-315.9243164062501	253.2803802490235	35.19665527343751	-338.8829345703126	341.1796569824219	456.7476501464845	-404.9734802246095	321.4045410156251	63.58152389526369	-300.5093078613282	403.0552368164064	24.88898086547852	-400.9957580566407	377.0435485839844	70.46225738525392	-350.7164916992188	85.45401000976564	875.6691894531252	-356.8946228027344	212.6497650146485	1242.470336914063	-463.3846435546876	355.2302551269532	612.4316406250001	-355.0380249023438	328.8357543945313	675.6492919921876	-362.8535461425782	302.1076049804688	563.4753417968751	-473.5747985839845	360.5612182617188	164.5146484375	-354.8797912597657	345.1463623046876	256.5312500000001	-442.1869201660157	418.9616088867189	42.2447624206543	-361.6134338378907	384.5972595214845	384.5753784179689	-355.6611938476563	175.6863098144532	742.2863769531251	-614.9378051757814	127.9104766845703	759.6274414062501	-656.4645996093751	-185.1531066894532	144.526351928711	-217.5303802490235	203.5276184082032	825.3034667968752	-189.2196044921875	110.0251922607422	1160.756225585938	-217.1301422119141	211.3166809082032	1426.312255859375	-249.4027252197266	249.4812469482422	983.906433105469	-119.6955718994141	365.5860595703126	1391.4921875	-233.0718688964844	469.4576110839845	807.1749267578127	-169.8309783935547	-112.707275390625	38.0968246459961	-269.1785583496094	-211.6142730712891	168.7458190917969	-267.9174194335938	117.8035049438477	415.906707763672	-199.8405761718751	-143.5364379882813	135.2091217041016	-283.9622192382813	-143.1694488525391	45.74401092529298	-194.5880126953126	-117.8259506225586	97.84617614746097	-230.965316772461	80.53922271728517	881.6007080078127	-269.1146850585938	176.871566772461	1258.001831054688	-172.2574462890625	207.7123565673829	519.8853149414064	-264.6083679199219	231.0300292968751	648.7908935546876	-243.9888763427735	151.1710510253907	536.4326171875001	-143.2474060058594	-9.149865150451662	238.3559112548829	-244.0688629150391	-53.0829200744629	290.0867614746094	-161.112060546875	-114.6255493164063	46.60658645629884	-224.6699371337891	98.96873474121097	325.1537170410157	-242.6965637207032	420.3491516113282	849.7838134765627	-200.7345581054688	418.7681274414064	827.322448730469	-143.2846069335938	277.1595764160157	1019.844665527344	-292.7201843261719	100.647331237793	982.0381469726565	-310.4731750488282	
227	2.26	182.97265625	1300.827392578125	-331.2895507812501	272.1244201660157	1206.825317382813	-305.8761291503907	303.9026794433594	56.82038879394533	-378.6391906738282	251.0041198730469	848.6646118164065	-403.1770019531251	255.0362243652344	1438.020263671875	-372.3914184570313	149.4429016113282	982.9739379882815	-569.7504882812501	376.9963073730469	1407.845336914063	-347.8373107910157	173.2401275634766	703.6506958007814	-664.2262573242189	427.6551513671876	33.30464935302735	-315.6047058105469	253.4456634521485	35.41295623779298	-339.0588073730469	347.9715270996094	455.6522827148439	-405.843475341797	321.7037048339844	63.4409637451172	-300.5321044921876	403.261688232422	24.68082237243653	-401.5531311035157	377.3711242675782	70.00094604492189	-350.7062377929688	96.63370513916018	876.8826904296877	-358.0983886718751	225.0485229492188	1242.975341796875	-465.2541503906251	364.6930847167969	611.2551269531251	-357.6334228515626	339.7351379394532	675.1700439453126	-365.7995300292969	309.1217651367188	562.4113769531251	-474.6659240722657	362.7363586425782	163.071029663086	-354.3450622558594	350.7895812988282	254.9576873779297	-442.0381469726564	419.3975524902345	42.03697967529298	-361.6043701171876	390.449188232422	382.7824096679688	-355.8357543945313	190.3917694091797	740.9631958007814	-611.1312866210939	144.3591766357422	757.7780151367189	-654.6672973632814	-171.2343139648438	151.8676147460938	-215.798568725586	214.9003601074219	825.8833007812502	-191.0216522216797	119.6875228881836	1161.709228515625	-219.5576629638672	220.3934783935547	1427.755737304688	-251.6443176269532	257.6139221191407	985.4643554687502	-120.3198623657227	376.1563720703126	1391.6630859375	-234.4791564941407	479.0074462890626	809.8610839843752	-167.8142395019532	-109.3133010864258	40.35049438476563	-268.7675170898438	-196.1385803222657	178.2098541259766	-266.2236328125001	136.7436218261719	415.2464294433595	-197.9478149414063	-130.4435119628907	140.6094970703125	-281.9326477050782	-136.5352630615235	50.27241516113283	-194.1569976806641	-107.4808502197266	100.7273483276367	-229.9632873535157	92.36418914794923	882.4485473632815	-270.0276794433594	185.8189697265625	1259.296630859375	-174.5159454345703	225.1520538330079	520.1565551757814	-263.4411010742188	244.6029968261719	649.7830200195314	-244.6506958007813	168.2672271728516	536.6766967773439	-142.5636138916016	5.280733108520509	240.3727722167969	-242.0340728759766	-36.13965225219727	293.8362731933594	-159.5426788330078	-109.0518646240235	48.97247695922853	-224.7627105712891	116.6508102416992	324.3467102050782	-240.3574218750001	430.4796752929689	853.0567016601565	-199.0545959472657	428.1471252441407	830.1799926757815	-141.8426055908203	287.7180175781251	1021.050659179688	-293.7489624023438	112.2770614624024	982.7847900390627	-311.6426391601563	
228	2.27	193.6554260253907	1301.845825195313	-333.2754821777344	282.2781372070313	1208.064208984375	-306.9931945800782	304.1696472167969	56.56223297119142	-378.6248474121094	261.9485473632813	849.7524414062502	-404.7019348144532	266.2596740722657	1438.833374023438	-374.1856079101563	163.8378295898438	982.7373657226565	-570.6829223632814	387.8785095214845	1407.942749023438	-349.2673950195313	190.446517944336	701.4384155273439	-659.3644409179689	427.696014404297	33.14616394042969	-315.3551330566407	253.5204315185547	35.55514907836915	-339.2539367675782	354.0698547363282	454.5253295898439	-406.7640991210939	321.8687744140626	63.37142181396486	-300.6066894531251	403.3939514160157	24.53379631042481	-401.9652099609376	377.5406188964844	69.6259002685547	-350.7305908203126	107.6759338378907	878.3377685546877	-359.6441650390626	237.1605072021485	1243.77783203125	-466.922821044922	373.4565734863282	609.6239624023439	-359.8642578125001	349.9201354980469	674.1490478515626	-368.4389648437501	315.3286743164063	561.2028808593751	-475.8116760253907	364.5006103515626	161.8658294677735	-354.0030517578126	355.2473144531251	253.626937866211	-442.0982055664064	419.6963500976564	41.91759872436524	-361.6092529296876	395.5115356445314	381.0219116210938	-356.0256652832032	205.7236785888672	739.8693847656251	-606.6974487304689	161.4083251953125	755.9337158203126	-652.1972045898439	-156.0860443115235	159.3886260986328	-214.0363769531251	226.2251434326172	826.986999511719	-192.9471130371094	129.3016510009766	1162.817260742188	-221.8847351074219	229.5161895751954	1429.434204101563	-253.7081909179688	265.7539978027344	987.1782226562502	-120.9178314208985	386.6884765625001	1392.061889648438	-235.8465881347657	488.0087890625001	812.0761718750002	-165.5580444335938	-104.3348770141602	43.46085357666016	-267.8953857421876	-179.5161285400391	187.5776672363282	-264.4952697753907	156.1304321289063	414.8714294433595	-195.9780426025391	-116.295150756836	146.1174774169922	-280.0140075683594	-128.3486022949219	55.63263320922853	-193.3389129638672	-95.94897460937501	104.1636657714844	-228.9525604248047	103.8480606079102	883.4736328125002	-271.3476562500001	194.7586517333985	1260.757934570313	-176.59130859375	243.0018920898438	520.8190307617189	-261.7676086425782	258.0832519531251	651.1030883789064	-245.0679321289063	185.2646942138672	537.2598266601564	-141.820297241211	20.35566902160645	242.5770568847657	-240.2256774902344	-18.07889175415039	297.2356567382813	-157.883544921875	-102.0970153808594	52.17359542846681	-224.5342254638672	134.9232635498047	323.8579711914063	-238.1791992187501	440.196746826172	855.9578247070315	-197.1912689208985	437.0129699707032	832.7257080078127	-140.2073516845703	298.2406616210938	1022.486328125	-294.5964965820313	123.8050918579102	983.8231201171877	-313.0221252441407	
229	2.28	204.2034912109376	1303.103393554688	-335.0799865722657	292.3506774902344	1209.535034179688	-307.9612731933594	304.3522033691407	56.3574905395508	-378.7205200195313	272.7068481445313	850.8989257812502	-406.1898193359376	277.4145507812501	1439.900512695313	-375.8759155273438	178.3152465820313	982.4991455078127	-571.2395629882814	398.6417846679689	1408.243041992188	-350.6366271972657	208.2959289550782	699.3972167968751	-653.8054199218751	427.6810302734376	33.11042404174805	-315.1965637207032	253.5337982177735	35.66300582885743	-339.4661560058594	359.6302185058594	453.4900207519532	-407.7197570800782	321.9512329101563	63.38189697265626	-300.7313537597657	403.4665527343751	24.41565704345704	-402.270233154297	377.6066284179688	69.31481170654298	-350.8063049316407	118.5453109741211	879.9675903320315	-361.4463195800782	248.9610900878907	1244.83837890625	-468.4080810546876	381.4915771484376	607.7893676757814	-361.5591430664063	359.2840270996094	672.7955322265626	-370.5584411621094	321.1797180175782	560.0933837890626	-476.9862060546876	365.9111938476563	160.9711456298828	-353.9884338378907	358.5110168457032	252.6587982177735	-442.4450683593751	419.8922729492189	41.83246612548829	-361.6552734375001	399.911102294922	379.4324951171876	-356.2889099121094	221.6718750000001	739.0305786132814	-601.7205810546876	178.9678802490235	754.1111450195314	-649.0545654296876	-139.8886871337891	167.0268707275391	-212.3018493652344	237.4424438476563	828.5557861328127	-194.9155426025391	138.8505554199219	1164.085693359375	-224.1203765869141	238.8977050781251	1431.278686523438	-255.5594329833985	273.8958129882813	989.0112304687502	-121.4713439941407	397.182098388672	1392.673828125	-237.1554870605469	496.4743652343751	813.801208496094	-163.0644989013672	-97.30594635009768	47.36295318603516	-266.4435729980469	-161.9779357910157	196.6516418457032	-262.8312072753907	175.7745666503907	414.9478454589845	-194.0121765136719	-101.1248855590821	151.7310485839844	-278.2094421386719	-118.4400253295899	61.7279624938965	-192.0507202148438	-83.19705963134767	108.200309753418	-227.8108062744141	114.8784790039063	884.614685058594	-273.0415344238282	203.6465759277344	1262.367431640625	-178.4987945556641	261.1126098632813	521.9628295898439	-259.6287841796876	271.4795532226563	652.7767333984376	-245.256820678711	201.9072418212891	538.2554931640626	-141.0334930419922	36.19830322265626	245.0107727050782	-238.5868835449219	0.8338203430175783	300.4755859375001	-156.1553192138672	-93.46884918212892	56.22144699096681	-223.8173217773438	153.726303100586	323.8160095214844	-236.1743164062501	449.5080871582032	858.4384765625002	-195.1510772705079	445.3753967285157	834.8918457031252	-138.3821868896485	308.7082519531251	1024.11328125	-295.2593994140626	135.1035308837891	985.1120605468752	-314.5835876464844	
